<svg id="kity_svg_6" xmlns="http://www.w3.org/2000/svg" xmlns:xlink="http://www.w3.org/1999/xlink" version="1.1" width="1324" height="1845" style="background: rgb(251, 251, 251); visibility: visible;" viewBox="0 0 1324 1845"><defs id="kity_defs_7"><linearGradient id="kity_linearGradient_17" x1="0" y1="0" x2="0" y2="1"><stop id="kity_stop_18" offset="0" stop-color="rgb(255, 255, 255)"></stop><stop id="kity_stop_19" offset="1" stop-color="rgb(204, 204, 204)"></stop></linearGradient><marker id="kity_marker_2" orient="auto" refX="6" refY="0" viewBox="-7 -7 14 14" markerWidth="7" markerHeight="7" markerUnits="userSpaceOnUse"><path id="kity_path_3" fill="rgb(115, 161, 191)" stroke="none" d="M6,0A6,6,0,1,1,-6,0A6,6,0,1,1,6,0"></path></marker></defs><g id="kity_g_8"><g id="minder1" text-rendering="optimize-speed"><g id="minder_connect_group1"><path id="kity_path_31" fill="none" stroke="rgb(191, 115, 148)" stroke-width="1" d="M286.5,84.5v30h-235V134.5"></path><path id="kity_path_33" fill="none" stroke="rgb(191, 115, 148)" stroke-width="1" d="M40.5,160.5V215.5L60.5,215.5"></path><path id="kity_path_35" fill="none" stroke="rgb(191, 115, 148)" stroke-width="1" d="M286.5,84.5v30h202V134.5"></path><path id="kity_path_37" fill="none" stroke="rgb(191, 115, 148)" stroke-width="1" d="M444.5,160.5V206.5L464.5,206.5"></path><path id="kity_path_39" fill="none" stroke="rgb(191, 115, 148)" stroke-width="1" d="M484.5,217.5V267.5L504.5,267.5"></path><path id="kity_path_41" fill="none" stroke="rgb(191, 115, 148)" stroke-width="1" d="M524.5,287.5V337.5L544.5,337.5"></path><path id="kity_path_43" fill="none" stroke="rgb(191, 115, 148)" stroke-width="1" d="M524.5,287.5V416.5L544.5,416.5"></path><path id="kity_path_45" fill="none" stroke="rgb(191, 115, 148)" stroke-width="1" d="M524.5,287.5V495.5L544.5,495.5"></path><path id="kity_path_47" fill="none" stroke="rgb(191, 115, 148)" stroke-width="1" d="M564.5,515.5V565.5L584.5,565.5"></path><path id="kity_path_49" fill="none" stroke="rgb(191, 115, 148)" stroke-width="1" d="M604.5,585.5V626.5L624.5,626.5"></path><path id="kity_path_51" fill="none" stroke="rgb(191, 115, 148)" stroke-width="1" d="M644.5,637.5V687.5L664.5,687.5"></path><path id="kity_path_53" fill="none" stroke="rgb(191, 115, 148)" stroke-width="1" d="M684.5,707.5V757.5L704.5,757.5"></path><path id="kity_path_55" fill="none" stroke="rgb(191, 115, 148)" stroke-width="1" d="M604.5,585.5V818.5L624.5,818.5"></path><path id="kity_path_57" fill="none" stroke="rgb(191, 115, 148)" stroke-width="1" d="M644.5,829.5V870.5L664.5,870.5"></path><path id="kity_path_59" fill="none" stroke="rgb(191, 115, 148)" stroke-width="1" d="M604.5,585.5V922.5L624.5,922.5"></path><path id="kity_path_61" fill="none" stroke="rgb(191, 115, 148)" stroke-width="1" d="M564.5,515.5V974.5L584.5,974.5"></path><path id="kity_path_63" fill="none" stroke="rgb(191, 115, 148)" stroke-width="1" d="M604.5,985.5V1035.5L624.5,1035.5"></path><path id="kity_path_65" fill="none" stroke="rgb(191, 115, 148)" stroke-width="1" d="M564.5,515.5V1141.5L584.5,1141.5"></path><path id="kity_path_67" fill="none" stroke="rgb(191, 115, 148)" stroke-width="1" d="M524.5,287.5V1247.5L544.5,1247.5"></path><path id="kity_path_69" fill="none" stroke="rgb(191, 115, 148)" stroke-width="1" d="M524.5,287.5V1317.5L544.5,1317.5"></path><path id="kity_path_71" fill="none" stroke="rgb(191, 115, 148)" stroke-width="1" d="M524.5,287.5V1387.5L544.5,1387.5"></path><path id="kity_path_73" fill="none" stroke="rgb(191, 115, 148)" stroke-width="1" d="M524.5,287.5V1448.5L544.5,1448.5"></path><path id="kity_path_75" fill="none" stroke="rgb(191, 115, 148)" stroke-width="1" d="M524.5,287.5V1509.5L544.5,1509.5"></path><path id="kity_path_77" fill="none" stroke="rgb(191, 115, 148)" stroke-width="1" d="M484.5,217.5V1579.5L504.5,1579.5"></path><path id="kity_path_79" fill="none" stroke="rgb(191, 115, 148)" stroke-width="1" d="M524.5,1599.5V1640.5L544.5,1640.5"></path><path id="kity_path_81" fill="none" stroke="rgb(191, 115, 148)" stroke-width="1" d="M564.5,1651.5V1701.5L584.5,1701.5"></path><path id="kity_path_83" fill="none" stroke="rgb(191, 115, 148)" stroke-width="1" d="M604.5,1721.5V1762.5L624.5,1762.5"></path><path id="kity_path_85" fill="none" stroke="rgb(191, 115, 148)" stroke-width="1" d="M484.5,217.5V1814.5L504.5,1814.5"></path></g><g id="minder_node1"><path id="node_outline1" fill="rgb(191, 115, 148)" stroke="rgb(96, 57, 74)" d="M198.5,20.5h176a5,5,0,0,1,5,5v54a5,5,0,0,1,-5,5h-176a5,5,0,0,1,-5,-5v-54a5,5,0,0,1,5,-5z" stroke-width="3"></path><g id="node_text1" fill="white"><text id="kity_text_22" text-rendering="inherit" font-size="16" dy=".8em" y="30.09999990463257" x="217.5">&#xa0; &#xa0; &#xa0; &#xa0; botMain</text><text id="kity_text_163" text-rendering="inherit" font-size="16" dy=".8em" y="54.09999990463257" x="217.5">warp-to-autopilot</text></g></g><g id="kity_g_12"><path id="kity_path_13" fill="none" stroke="none" d="M217.5,52.5h0v0h0z"></path></g><g id="kity_g_14"><path id="kity_path_15" fill="none" stroke="none" d="M217.5,52.5h0v0h0z"></path><path id="kity_path_16" fill="none" stroke="none"></path></g><g id="minder_node2"><g id="node_expander2" style="cursor: pointer;"><path id="kity_path_196" fill="white" stroke="gray" d="M57.5,127.5A6,6,0,1,1,45.5,127.5A6,6,0,1,1,57.5,127.5"></path><path id="kity_path_197" fill="none" stroke="gray" d="M47,127.5L56,127.5"></path></g><path id="node_outline3" fill="rgb(246, 238, 242)" stroke="rgb(191, 115, 148)" d="M23.5,134.5h56a3,3,0,0,1,3,3v20a3,3,0,0,1,-3,3h-56a3,3,0,0,1,-3,-3v-20a3,3,0,0,1,3,-3z" stroke-width="1"></path><g id="node_text3" fill="black"><text id="kity_text_90" text-rendering="inherit" font-size="14" dy=".8em" y="138.40000009536743" x="40.5">init</text></g></g><g id="minder_node3"><g id="node_expander1" display="none" style="cursor: pointer;"><path id="kity_path_193" fill="white" stroke="gray" d="M60.5,215.5A6,6,0,1,1,48.5,215.5A6,6,0,1,1,60.5,215.5"></path><path id="kity_path_194" fill="none" stroke="gray"></path></g><path id="node_outline2" fill="none" stroke="none" d="M65.5,195.5h314a5,5,0,0,1,5,5v30a5,5,0,0,1,-5,5h-314a5,5,0,0,1,-5,-5v-30a5,5,0,0,1,5,-5z"></path><g id="node_text2" fill="black"><text id="kity_text_87" text-rendering="inherit" font-size="12" dy=".8em" y="198.70000004768372" x="70.5">EveOnline.BotFrameworkSeparatingMemory.initState</text><text id="kity_text_88" text-rendering="inherit" font-size="12" dy=".8em" y="216.70000004768372" x="70.5">初始化没啥用</text></g></g><g id="minder_node4"><g id="node_expander28" style="cursor: pointer;"><path id="kity_path_274" fill="white" stroke="gray" d="M494.5,127.5A6,6,0,1,1,482.5,127.5A6,6,0,1,1,494.5,127.5"></path><path id="kity_path_275" fill="none" stroke="gray" d="M484,127.5L493,127.5"></path></g><path id="node_outline29" fill="rgb(246, 238, 242)" stroke="rgb(191, 115, 148)" d="M427.5,134.5h122a3,3,0,0,1,3,3v20a3,3,0,0,1,-3,3h-122a3,3,0,0,1,-3,-3v-20a3,3,0,0,1,3,-3z" stroke-width="1"></path><g id="node_text29" fill="black"><text id="kity_text_162" text-rendering="inherit" font-size="14" dy=".8em" y="138.40000009536743" x="444.5">processEvent</text></g></g><g id="minder_node5"><g id="node_expander27" style="cursor: pointer;"><path id="kity_path_271" fill="white" stroke="gray" d="M464.5,206.5A6,6,0,1,1,452.5,206.5A6,6,0,1,1,464.5,206.5"></path><path id="kity_path_272" fill="none" stroke="gray" d="M454,206.5L463,206.5"></path></g><path id="node_outline28" fill="none" stroke="none" d="M469.5,195.5h466a5,5,0,0,1,5,5v12a5,5,0,0,1,-5,5h-466a5,5,0,0,1,-5,-5v-12a5,5,0,0,1,5,-5z"></path><g id="node_text28" fill="black"><text id="kity_text_160" text-rendering="inherit" font-size="12" dy=".8em" y="198.70000004768372" x="474.5">EveOnline.BotFrameworkSeparatingMemory.processEventWithImageProcessing</text></g></g><g id="minder_node6"><g id="node_expander21" style="cursor: pointer;"><path id="kity_path_253" fill="white" stroke="gray" d="M504.5,267.5A6,6,0,1,1,492.5,267.5A6,6,0,1,1,504.5,267.5"></path><path id="kity_path_254" fill="none" stroke="gray" d="M494,267.5L503,267.5"></path></g><path id="node_outline22" fill="none" stroke="none" d="M509.5,247.5h207a5,5,0,0,1,5,5v30a5,5,0,0,1,-5,5h-207a5,5,0,0,1,-5,-5v-30a5,5,0,0,1,5,-5z"></path><g id="node_text22" fill="black"><text id="kity_text_145" text-rendering="inherit" font-size="12" dy=".8em" y="250.70000004768372" x="514.5">processEventInBaseFramework</text><text id="kity_text_146" text-rendering="inherit" font-size="12" dy=".8em" y="268.7000000476837" x="514.5">读取完游戏内存,然后执行下一步操作</text></g></g><g id="minder_node7"><g id="node_expander3" display="none" style="cursor: pointer;"><path id="kity_path_199" fill="white" stroke="gray" d="M544.5,337.5A6,6,0,1,1,532.5,337.5A6,6,0,1,1,544.5,337.5"></path><path id="kity_path_200" fill="none" stroke="gray"></path></g><path id="node_outline4" fill="none" stroke="none" d="M549.5,317.5h364a5,5,0,0,1,5,5v30a5,5,0,0,1,-5,5h-364a5,5,0,0,1,-5,-5v-30a5,5,0,0,1,5,-5z"></path><g id="node_text4" fill="black"><text id="kity_text_92" text-rendering="inherit" font-size="12" dy=".8em" y="320.7000000476837" x="554.5">EveOnline.BotFramework.ReadingFromGameClientCompleted</text><text id="kity_text_93" text-rendering="inherit" font-size="12" dy=".8em" y="338.7000000476837" x="554.5">判断读取完游戏内存没有</text></g></g><g id="minder_node8"><g id="node_expander4" display="none" style="cursor: pointer;"><path id="kity_path_202" fill="white" stroke="gray" d="M544.5,416.5A6,6,0,1,1,532.5,416.5A6,6,0,1,1,544.5,416.5"></path><path id="kity_path_203" fill="none" stroke="gray"></path></g><path id="node_outline5" fill="none" stroke="none" d="M549.5,387.5h326a5,5,0,0,1,5,5v48a5,5,0,0,1,-5,5h-326a5,5,0,0,1,-5,-5v-48a5,5,0,0,1,5,-5z"></path><g id="node_text5" fill="black"><text id="kity_text_95" text-rendering="inherit" font-size="12" dy=".8em" y="390.7000000476837" x="554.5">updateMemoryForNewReadingFromGame</text><text id="kity_text_96" text-rendering="inherit" font-size="12" dy=".8em" y="408.7000000476837" x="554.5">传入context和memoryBefore</text><text id="kity_text_97" text-rendering="inherit" font-size="12" dy=".8em" y="426.7000000476837" x="554.5">具体功能具体实现,这里是判断上一个星系是否是现在的星系</text></g></g><g id="minder_node9"><g id="node_expander15" style="cursor: pointer;"><path id="kity_path_235" fill="white" stroke="gray" d="M544.5,495.5A6,6,0,1,1,532.5,495.5A6,6,0,1,1,544.5,495.5"></path><path id="kity_path_236" fill="none" stroke="gray" d="M534,495.5L543,495.5"></path></g><path id="node_outline16" fill="none" stroke="none" d="M549.5,475.5h403a5,5,0,0,1,5,5v30a5,5,0,0,1,-5,5h-403a5,5,0,0,1,-5,-5v-30a5,5,0,0,1,5,-5z"></path><g id="node_text16" fill="black"><text id="kity_text_128" text-rendering="inherit" font-size="12" dy=".8em" y="478.7000000476837" x="554.5">decideNextStep</text><text id="kity_text_129" text-rendering="inherit" font-size="12" dy=".8em" y="496.7000000476837" x="554.5">这里的这个函数吃外部传进来的,是botMain的autopilotBotDecisionRoot</text></g></g><g id="minder_node10"><g id="node_expander11" style="cursor: pointer;"><path id="kity_path_223" fill="white" stroke="gray" d="M584.5,565.5A6,6,0,1,1,572.5,565.5A6,6,0,1,1,584.5,565.5"></path><path id="kity_path_224" fill="none" stroke="gray" d="M574,565.5L583,565.5"></path></g><path id="node_outline12" fill="none" stroke="none" d="M589.5,545.5h152a5,5,0,0,1,5,5v30a5,5,0,0,1,-5,5h-152a5,5,0,0,1,-5,-5v-30a5,5,0,0,1,5,-5z"></path><g id="node_text12" fill="black"><text id="kity_text_113" text-rendering="inherit" font-size="12" dy=".8em" y="548.7000000476837" x="594.5">decideStepWhenInSpace</text><text id="kity_text_114" text-rendering="inherit" font-size="12" dy=".8em" y="566.7000000476837" x="594.5">判断船是否在太空</text></g></g><g id="minder_node11"><g id="node_expander7" style="cursor: pointer;"><path id="kity_path_211" fill="white" stroke="gray" d="M624.5,626.5A6,6,0,1,1,612.5,626.5A6,6,0,1,1,624.5,626.5"></path><path id="kity_path_212" fill="none" stroke="gray" d="M614,626.5L623,626.5"></path></g><path id="node_outline8" fill="none" stroke="none" d="M629.5,615.5h154a5,5,0,0,1,5,5v12a5,5,0,0,1,-5,5h-154a5,5,0,0,1,-5,-5v-12a5,5,0,0,1,5,-5z"></path><g id="node_text8" fill="black"><text id="kity_text_105" text-rendering="inherit" font-size="12" dy=".8em" y="618.7000000476837" x="634.5">1. 我看不到route,需要设置</text></g></g><g id="minder_node12"><g id="node_expander6" style="cursor: pointer;"><path id="kity_path_208" fill="white" stroke="gray" d="M664.5,687.5A6,6,0,1,1,652.5,687.5A6,6,0,1,1,664.5,687.5"></path><path id="kity_path_209" fill="none" stroke="gray" d="M654,687.5L663,687.5"></path></g><path id="node_outline7" fill="none" stroke="none" d="M669.5,667.5h196a5,5,0,0,1,5,5v30a5,5,0,0,1,-5,5h-196a5,5,0,0,1,-5,-5v-30a5,5,0,0,1,5,-5z"></path><g id="node_text7" fill="black"><text id="kity_text_102" text-rendering="inherit" font-size="12" dy=".8em" y="670.7000000476837" x="674.5">decideStepWhenInSpaceWaiting</text><text id="kity_text_103" text-rendering="inherit" font-size="12" dy=".8em" y="688.7000000476837" x="674.5">点击鼠标左键,激活模块</text></g></g><g id="minder_node13"><g id="node_expander5" display="none" style="cursor: pointer;"><path id="kity_path_205" fill="white" stroke="gray" d="M704.5,757.5A6,6,0,1,1,692.5,757.5A6,6,0,1,1,704.5,757.5"></path><path id="kity_path_206" fill="none" stroke="gray"></path></g><path id="node_outline6" fill="none" stroke="none" d="M709.5,737.5h590a5,5,0,0,1,5,5v30a5,5,0,0,1,-5,5h-590a5,5,0,0,1,-5,-5v-30a5,5,0,0,1,5,-5z"></path><g id="node_text6" fill="black"><text id="kity_text_99" text-rendering="inherit" font-size="12" dy=".8em" y="740.7000000476837" x="714.5">EveOnline.BotFrameworkSeparatingMemory.readShipUIModuleButtonTooltipWhereNotYetInMemory</text><text id="kity_text_100" text-rendering="inherit" font-size="12" dy=".8em" y="758.7000000476837" x="714.5">读取不在内存中的tooltip模块按钮,找出tooltip(实际上还是在内存中读取),然后把鼠标移过去</text></g></g><g id="minder_node14"><g id="node_expander9" style="cursor: pointer;"><path id="kity_path_217" fill="white" stroke="gray" d="M624.5,818.5A6,6,0,1,1,612.5,818.5A6,6,0,1,1,624.5,818.5"></path><path id="kity_path_218" fill="none" stroke="gray" d="M614,818.5L623,818.5"></path></g><path id="node_outline10" fill="none" stroke="none" d="M629.5,807.5h159a5,5,0,0,1,5,5v12a5,5,0,0,1,-5,5h-159a5,5,0,0,1,-5,-5v-12a5,5,0,0,1,5,-5z"></path><g id="node_text10" fill="black"><text id="kity_text_109" text-rendering="inherit" font-size="12" dy=".8em" y="810.7000000476837" x="634.5">2. 出完站:我看到船正在跳跃</text></g></g><g id="minder_node15"><g id="node_expander8" display="none" style="cursor: pointer;"><path id="kity_path_214" fill="white" stroke="gray" d="M664.5,870.5A6,6,0,1,1,652.5,870.5A6,6,0,1,1,664.5,870.5"></path><path id="kity_path_215" fill="none" stroke="gray"></path></g><path id="node_outline9" fill="none" stroke="none" d="M669.5,859.5h196a5,5,0,0,1,5,5v12a5,5,0,0,1,-5,5h-196a5,5,0,0,1,-5,-5v-12a5,5,0,0,1,5,-5z"></path><g id="node_text9" fill="black"><text id="kity_text_107" text-rendering="inherit" font-size="12" dy=".8em" y="862.7000000476837" x="674.5">decideStepWhenInSpaceWaiting</text></g></g><g id="minder_node16"><g id="node_expander10" display="none" style="cursor: pointer;"><path id="kity_path_220" fill="white" stroke="gray" d="M624.5,922.5A6,6,0,1,1,612.5,922.5A6,6,0,1,1,624.5,922.5"></path><path id="kity_path_221" fill="none" stroke="gray"></path></g><path id="node_outline11" fill="none" stroke="none" d="M629.5,911.5h87a5,5,0,0,1,5,5v12a5,5,0,0,1,-5,5h-87a5,5,0,0,1,-5,-5v-12a5,5,0,0,1,5,-5z"></path><g id="node_text11" fill="black"><text id="kity_text_111" text-rendering="inherit" font-size="12" dy=".8em" y="914.7000000476837" x="634.5">3. 没出站,出站</text></g></g><g id="minder_node17"><g id="node_expander13" style="cursor: pointer;"><path id="kity_path_229" fill="white" stroke="gray" d="M584.5,974.5A6,6,0,1,1,572.5,974.5A6,6,0,1,1,584.5,974.5"></path><path id="kity_path_230" fill="none" stroke="gray" d="M574,974.5L583,974.5"></path></g><path id="node_outline14" fill="none" stroke="none" d="M589.5,963.5h532a5,5,0,0,1,5,5v12a5,5,0,0,1,-5,5h-532a5,5,0,0,1,-5,-5v-12a5,5,0,0,1,5,-5z"></path><g id="node_text14" fill="black"><text id="kity_text_119" text-rendering="inherit" font-size="12" dy=".8em" y="966.7000000476837" x="594.5">EveOnline.BotFrameworkSeparatingMemory.setMillisecondsToNextReadingFromGameBase</text></g></g><g id="minder_node18"><g id="node_expander12" display="none" style="cursor: pointer;"><path id="kity_path_226" fill="white" stroke="gray" d="M624.5,1035.5A6,6,0,1,1,612.5,1035.5A6,6,0,1,1,624.5,1035.5"></path><path id="kity_path_227" fill="none" stroke="gray"></path></g><path id="node_outline13" fill="none" stroke="none" d="M629.5,1015.5h242a5,5,0,0,1,5,5v30a5,5,0,0,1,-5,5h-242a5,5,0,0,1,-5,-5v-30a5,5,0,0,1,5,-5z"></path><g id="node_text13" fill="black"><text id="kity_text_116" text-rendering="inherit" font-size="12" dy=".8em" y="1018.7000000476837" x="634.5">updateDecisionPathEndContinueSession</text><text id="kity_text_117" text-rendering="inherit" font-size="12" dy=".8em" y="1036.7000000476837" x="634.5">更新是否到终点,继续的话休眠2000毫秒</text></g></g><g id="minder_node19"><g id="node_expander14" display="none" style="cursor: pointer;"><path id="kity_path_232" fill="white" stroke="gray" d="M584.5,1141.5A6,6,0,1,1,572.5,1141.5A6,6,0,1,1,584.5,1141.5"></path><path id="kity_path_233" fill="none" stroke="gray"></path></g><path id="node_outline15" fill="none" stroke="none" d="M589.5,1085.5h296a5,5,0,0,1,5,5v102a5,5,0,0,1,-5,5h-296a5,5,0,0,1,-5,-5v-102a5,5,0,0,1,5,-5z"></path><g id="node_text15" fill="black"><text id="kity_text_121" text-rendering="inherit" font-size="12" dy=".8em" y="1088.7000000476837" x="594.5">branchDependingOnDockedOrInSpace</text><text id="kity_text_122" text-rendering="inherit" font-size="12" dy=".8em" y="1106.7000000476837" x="594.5">判断船的UI</text><text id="kity_text_123" text-rendering="inherit" font-size="12" dy=".8em" y="1124.7000000476837" x="594.5">1. 当看不到船的时候,它猜测是docked了</text><text id="kity_text_124" text-rendering="inherit" font-size="12" dy=".8em" y="1142.7000000476837" x="594.5">2. 当还看到船了,分两种情况</text><text id="kity_text_125" text-rendering="inherit" font-size="12" dy=".8em" y="1160.7000000476837" x="594.5">	1. 看不到总览的话,那是在等在undocking completed</text><text id="kity_text_126" text-rendering="inherit" font-size="12" dy=".8em" y="1178.7000000476837" x="594.5">	2. 看到总览了,那就是undocking complete</text></g></g><g id="minder_node20"><g id="node_expander16" display="none" style="cursor: pointer;"><path id="kity_path_238" fill="white" stroke="gray" d="M544.5,1247.5A6,6,0,1,1,532.5,1247.5A6,6,0,1,1,544.5,1247.5"></path><path id="kity_path_239" fill="none" stroke="gray"></path></g><path id="node_outline17" fill="none" stroke="none" d="M549.5,1227.5h271a5,5,0,0,1,5,5v30a5,5,0,0,1,-5,5h-271a5,5,0,0,1,-5,-5v-30a5,5,0,0,1,5,-5z"></path><g id="node_text17" fill="black"><text id="kity_text_131" text-rendering="inherit" font-size="12" dy=".8em" y="1230.7000000476837" x="554.5">unpackToDecisionStagesDescriptionsAndLeaf</text><text id="kity_text_132" text-rendering="inherit" font-size="12" dy=".8em" y="1248.7000000476837" x="554.5">不确定,大概是找到要执行的下一步</text></g></g><g id="minder_node21"><g id="node_expander17" display="none" style="cursor: pointer;"><path id="kity_path_241" fill="white" stroke="gray" d="M544.5,1317.5A6,6,0,1,1,532.5,1317.5A6,6,0,1,1,544.5,1317.5"></path><path id="kity_path_242" fill="none" stroke="gray"></path></g><path id="node_outline18" fill="none" stroke="none" d="M549.5,1297.5h509a5,5,0,0,1,5,5v30a5,5,0,0,1,-5,5h-509a5,5,0,0,1,-5,-5v-30a5,5,0,0,1,5,-5z"></path><g id="node_text18" fill="black"><text id="kity_text_134" text-rendering="inherit" font-size="12" dy=".8em" y="1300.7000000476837" x="554.5">act.effectsOnGameClient</text><text id="kity_text_135" text-rendering="inherit" font-size="12" dy=".8em" y="1318.7000000476837" x="554.5">根据上一步找出来的步骤,如果是ContinueSession的话,执行鼠标移动点击键盘按下起来的操作</text></g></g><g id="minder_node22"><g id="node_expander18" display="none" style="cursor: pointer;"><path id="kity_path_244" fill="white" stroke="gray" d="M544.5,1387.5A6,6,0,1,1,532.5,1387.5A6,6,0,1,1,544.5,1387.5"></path><path id="kity_path_245" fill="none" stroke="gray"></path></g><path id="node_outline19" fill="none" stroke="none" d="M549.5,1367.5h294a5,5,0,0,1,5,5v30a5,5,0,0,1,-5,5h-294a5,5,0,0,1,-5,-5v-30a5,5,0,0,1,5,-5z"></path><g id="node_text19" fill="black"><text id="kity_text_137" text-rendering="inherit" font-size="12" dy=".8em" y="1370.7000000476837" x="554.5">statusTextFromDecisionContext</text><text id="kity_text_138" text-rendering="inherit" font-size="12" dy=".8em" y="1388.7000000476837" x="554.5">一个星系跳跃完成,现在的星系在哪里,船的模块是什么</text></g></g><g id="minder_node23"><g id="node_expander19" display="none" style="cursor: pointer;"><path id="kity_path_247" fill="white" stroke="gray" d="M544.5,1448.5A6,6,0,1,1,532.5,1448.5A6,6,0,1,1,544.5,1448.5"></path><path id="kity_path_248" fill="none" stroke="gray"></path></g><path id="node_outline20" fill="none" stroke="none" d="M549.5,1437.5h182a5,5,0,0,1,5,5v12a5,5,0,0,1,-5,5h-182a5,5,0,0,1,-5,-5v-12a5,5,0,0,1,5,-5z"></path><g id="node_text20" fill="black"><text id="kity_text_140" text-rendering="inherit" font-size="12" dy=".8em" y="1440.7000000476837" x="554.5">上面是let代码块,下面是in代码块</text></g></g><g id="minder_node24"><g id="node_expander20" display="none" style="cursor: pointer;"><path id="kity_path_250" fill="white" stroke="gray" d="M544.5,1509.5A6,6,0,1,1,532.5,1509.5A6,6,0,1,1,544.5,1509.5"></path><path id="kity_path_251" fill="none" stroke="gray"></path></g><path id="node_outline21" fill="none" stroke="none" d="M549.5,1489.5h350a5,5,0,0,1,5,5v30a5,5,0,0,1,-5,5h-350a5,5,0,0,1,-5,-5v-30a5,5,0,0,1,5,-5z"></path><g id="node_text21" fill="black"><text id="kity_text_142" text-rendering="inherit" font-size="12" dy=".8em" y="1492.7000000476837" x="554.5">根据decisionLeaf判断是否ContinueSession还是FinishSession</text><text id="kity_text_143" text-rendering="inherit" font-size="12" dy=".8em" y="1510.7000000476837" x="554.5">最后返回sesseion,形参为processEvent</text></g></g><g id="minder_node25"><g id="node_expander25" style="cursor: pointer;"><path id="kity_path_265" fill="white" stroke="gray" d="M504.5,1579.5A6,6,0,1,1,492.5,1579.5A6,6,0,1,1,504.5,1579.5"></path><path id="kity_path_266" fill="none" stroke="gray" d="M494,1579.5L503,1579.5"></path></g><path id="node_outline26" fill="none" stroke="none" d="M509.5,1559.5h269a5,5,0,0,1,5,5v30a5,5,0,0,1,-5,5h-269a5,5,0,0,1,-5,-5v-30a5,5,0,0,1,5,-5z"></path><g id="node_text26" fill="black"><text id="kity_text_155" text-rendering="inherit" font-size="12" dy=".8em" y="1562.7000000476837" x="514.5">EveOnline.BotFramework.processEvent</text><text id="kity_text_156" text-rendering="inherit" font-size="12" dy=".8em" y="1580.7000000476837" x="514.5">BotLab框架用来判断任务情况,是继续还是完成的</text></g></g><g id="minder_node26"><g id="node_expander24" style="cursor: pointer;"><path id="kity_path_262" fill="white" stroke="gray" d="M544.5,1640.5A6,6,0,1,1,532.5,1640.5A6,6,0,1,1,544.5,1640.5"></path><path id="kity_path_263" fill="none" stroke="gray" d="M534,1640.5L543,1640.5"></path></g><path id="node_outline25" fill="none" stroke="none" d="M549.5,1629.5h191a5,5,0,0,1,5,5v12a5,5,0,0,1,-5,5h-191a5,5,0,0,1,-5,-5v-12a5,5,0,0,1,5,-5z"></path><g id="node_text25" fill="black"><text id="kity_text_153" text-rendering="inherit" font-size="12" dy=".8em" y="1632.7000000476837" x="554.5">processEventLessMappingTasks</text></g></g><g id="minder_node27"><g id="node_expander23" style="cursor: pointer;"><path id="kity_path_259" fill="white" stroke="gray" d="M584.5,1701.5A6,6,0,1,1,572.5,1701.5A6,6,0,1,1,584.5,1701.5"></path><path id="kity_path_260" fill="none" stroke="gray" d="M574,1701.5L583,1701.5"></path></g><path id="node_outline24" fill="none" stroke="none" d="M589.5,1681.5h368a5,5,0,0,1,5,5v30a5,5,0,0,1,-5,5h-368a5,5,0,0,1,-5,-5v-30a5,5,0,0,1,5,-5z"></path><g id="node_text24" fill="black"><text id="kity_text_150" text-rendering="inherit" font-size="12" dy=".8em" y="1684.7000000476837" x="594.5">processEventAfterIntegrateEvent</text><text id="kity_text_151" text-rendering="inherit" font-size="12" dy=".8em" y="1702.7000000476837" x="594.5">判断现在还有没有任务要继续完成的,如果有,继续等待,没有返回提示</text></g></g><g id="minder_node28"><g id="node_expander22" display="none" style="cursor: pointer;"><path id="kity_path_256" fill="white" stroke="gray" d="M624.5,1762.5A6,6,0,1,1,612.5,1762.5A6,6,0,1,1,624.5,1762.5"></path><path id="kity_path_257" fill="none" stroke="gray"></path></g><path id="node_outline23" fill="none" stroke="none" d="M629.5,1751.5h261a5,5,0,0,1,5,5v12a5,5,0,0,1,-5,5h-261a5,5,0,0,1,-5,-5v-12a5,5,0,0,1,5,-5z"></path><g id="node_text23" fill="black"><text id="kity_text_148" text-rendering="inherit" font-size="12" dy=".8em" y="1754.7000000476837" x="634.5">processEventNotWaitingForTaskCompletion</text></g></g><g id="minder_node29"><g id="node_expander26" display="none" style="cursor: pointer;"><path id="kity_path_268" fill="white" stroke="gray" d="M504.5,1814.5A6,6,0,1,1,492.5,1814.5A6,6,0,1,1,504.5,1814.5"></path><path id="kity_path_269" fill="none" stroke="gray"></path></g><path id="node_outline27" fill="none" stroke="none" d="M509.5,1803.5h254a5,5,0,0,1,5,5v12a5,5,0,0,1,-5,5h-254a5,5,0,0,1,-5,-5v-12a5,5,0,0,1,5,-5z"></path><g id="node_text27" fill="black"><text id="kity_text_158" text-rendering="inherit" font-size="12" dy=".8em" y="1806.7000000476837" x="514.5">BotLab.NotificationsShim.addNotifications</text></g></g></g></g></svg>